<svg width="150" height="63" viewBox="0 0 150 63" fill="none" xmlns="http://www.w3.org/2000/svg">
<path d="M52.4107 14.1768L28.2473 0.223341C27.6943 -0.074447 27.0136 -0.074447 26.5031 0.223341L2.33976 14.1768C0.893363 15.0276 0 16.5591 0 18.2608V46.1677C0 46.8059 0.340325 47.3589 0.89336 47.6992L25.0567 61.6527C26.5031 62.5035 28.2898 62.5035 29.7362 61.6527L53.8996 47.6992C54.4526 47.4014 54.793 46.8059 54.793 46.1677V18.2608C54.7504 16.5591 53.8571 15.0276 52.4107 14.1768ZM36.7555 46.8484L31.9484 37.3192L32.5014 36.128L30.1191 34.6816L30.1617 33.6181L30.4594 33.3629L30.7147 31.9165C32.076 31.7889 33.4373 30.8104 33.65 30.1723C33.8627 29.5342 33.3522 28.9386 33.3522 28.9386C32.7141 28.1303 30.4169 27.5347 30.4169 27.5347L30.1617 24.8546C29.9489 24.5994 29.8213 24.6419 29.8213 24.6419C28.8429 25.0674 27.3965 25.0674 27.3965 25.0674C27.3965 25.0674 25.9501 25.1099 24.9716 24.6419C24.9716 24.6419 24.844 24.5994 24.6313 24.8546L24.3761 27.5347C24.3761 27.5347 22.0788 28.0878 21.4407 28.9386C21.4407 28.9386 20.8877 29.5342 21.1429 30.1723C21.3556 30.8104 22.717 31.7889 24.0783 31.9165L24.3335 33.3629L24.6313 33.6181L24.6738 34.6816L22.2915 36.128L22.8446 37.3192L18.0374 46.8484H0.425411L27.439 0.0957162L54.4526 46.8484H36.7555Z" fill="url(#paint0_linear_521_2213)"/>
<path d="M73.8938 23.4937H77.5098L84.9545 40.2123H81.2534L79.8495 36.8941H71.6391L70.2352 40.2123H66.5342L73.8938 23.4937ZM78.5733 34.0013L75.6805 27.1947L72.7877 34.0013H78.5733Z" fill="white"/>
<path d="M85.4651 40.5526H80.9983L79.5944 37.2344H71.8094L70.4055 40.5526H65.9387L73.6812 23.1958H77.7226L77.8077 23.4085L85.4651 40.5526ZM81.4237 39.8719H84.4016L77.2972 23.8339H74.1066L66.9597 39.8719H69.9376L71.3414 36.5537H80.0198L81.4237 39.8719ZM79.0839 34.3416H72.2774L75.6806 26.3438L79.0839 34.3416ZM73.2983 33.6609H78.1055L75.6806 28.0029L73.2983 33.6609Z" fill="white"/>
<path d="M87.252 23.4512H90.1873V33.2782L95.1221 27.6202H98.9082L93.2928 33.9163L98.9082 40.2124H95.1221L90.1873 34.5544V40.2124H87.252V23.4512Z" fill="white"/>
<path d="M99.5463 40.5526H94.9944L90.485 35.4051V40.5526H86.9541V23.1958H90.485V32.5548L94.9944 27.4074H99.5463L93.6756 34.0012L99.5463 40.5526ZM95.2496 39.957H98.2275L92.8673 33.9587L98.2275 27.9604H95.2496L90.0171 33.9587L95.2496 39.957ZM87.5071 39.957H89.8469V23.7488H87.5071V39.957Z" fill="white"/>
<path d="M100.397 36.2984C100.397 35.5752 100.482 34.9371 100.695 34.4266C100.907 33.9161 101.163 33.5333 101.503 33.2355C101.843 32.9377 102.226 32.725 102.694 32.5974C103.162 32.4697 103.63 32.3847 104.141 32.3847H109.203C109.203 31.9593 109.118 31.5764 108.948 31.2786C108.778 30.9808 108.565 30.7256 108.267 30.5554C108.012 30.3852 107.672 30.2576 107.331 30.1725C106.948 30.0874 106.565 30.0449 106.14 30.0449H101.205V27.6626H106.48C107.204 27.6626 107.927 27.7477 108.565 27.9178C109.203 28.088 109.799 28.3433 110.267 28.7261C110.777 29.109 111.16 29.5769 111.458 30.2151C111.755 30.8106 111.883 31.5764 111.883 32.4272V40.2548H104.098C103.588 40.2548 103.077 40.1697 102.652 40.0421C102.184 39.9144 101.801 39.7017 101.461 39.3614C101.12 39.0636 100.865 38.6382 100.652 38.1277C100.482 37.6598 100.397 37.0642 100.397 36.2984ZM103.12 36.2984C103.12 36.8515 103.29 37.2769 103.588 37.4896C103.885 37.7023 104.268 37.8299 104.694 37.8299H109.203V34.7244H104.694C104.268 34.7244 103.928 34.852 103.588 35.0647C103.29 35.32 103.12 35.7029 103.12 36.2984Z" fill="white"/>
<path d="M112.224 40.5524H104.141C103.588 40.5524 103.077 40.4673 102.609 40.3397C102.099 40.2121 101.673 39.9569 101.29 39.6165C100.908 39.2762 100.61 38.8508 100.44 38.2978C100.227 37.7447 100.142 37.1066 100.142 36.3409C100.142 35.5751 100.227 34.8945 100.44 34.384C100.652 33.8309 100.95 33.4055 101.333 33.0652C101.716 32.7249 102.141 32.5122 102.652 32.342C103.12 32.2144 103.63 32.1293 104.183 32.1293H108.948C108.905 31.874 108.863 31.6613 108.735 31.4486C108.608 31.1934 108.395 30.9807 108.182 30.8105C107.927 30.6404 107.672 30.5127 107.331 30.4702C106.991 30.3851 106.608 30.3426 106.225 30.3426H100.993V27.4072H106.566C107.331 27.4072 108.054 27.4923 108.735 27.6625C109.416 27.8326 110.054 28.1304 110.564 28.5133C111.075 28.9387 111.5 29.4492 111.841 30.0873C112.138 30.7254 112.309 31.5337 112.309 32.4271V40.5524H112.224ZM104.141 32.6823C103.673 32.6823 103.205 32.7249 102.779 32.8525C102.354 32.9801 102.014 33.1503 101.716 33.4481C101.418 33.7033 101.163 34.0862 100.993 34.5541C100.823 35.0221 100.737 35.6177 100.737 36.2983C100.737 36.979 100.823 37.5746 100.993 38.0425C101.163 38.5105 101.418 38.8933 101.716 39.1486C102.014 39.4464 102.397 39.6165 102.779 39.7442C103.205 39.8718 103.673 39.9143 104.141 39.9143H111.67V32.342C111.67 31.4912 111.543 30.8105 111.288 30.2575C111.032 29.7045 110.649 29.2365 110.182 28.8962C109.714 28.5558 109.161 28.3006 108.565 28.1304C107.927 27.9603 107.246 27.9177 106.566 27.9177H101.546V29.7044H106.183C106.608 29.7044 107.033 29.747 107.416 29.8321C107.799 29.9172 108.182 30.0873 108.48 30.2575C108.778 30.4702 109.033 30.768 109.246 31.1083C109.416 31.4486 109.543 31.874 109.543 32.342V32.6398H104.141V32.6823ZM109.501 38.1701H104.694C104.226 38.1701 103.8 38.0425 103.418 37.7873C103.035 37.4895 102.822 37.0215 102.822 36.3409C102.822 35.6602 103.035 35.1497 103.418 34.8519C103.8 34.5967 104.226 34.4691 104.694 34.4691H109.501V38.1701ZM104.694 35.0221C104.353 35.0221 104.013 35.1072 103.758 35.3199C103.545 35.49 103.418 35.8304 103.418 36.3409C103.418 36.8088 103.545 37.1492 103.758 37.3193C104.013 37.532 104.311 37.6171 104.694 37.6171H108.905V35.0646H104.694V35.0221Z" fill="white"/>
<path d="M114.606 37.8724H121.2C121.668 37.8724 122.093 37.7873 122.391 37.5746C122.731 37.3619 122.901 37.0216 122.901 36.5536C122.901 36.0431 122.731 35.6603 122.391 35.4476C122.05 35.2348 121.668 35.1498 121.2 35.1498H118.137C117.541 35.1498 117.031 35.1072 116.52 34.9796C116.052 34.852 115.627 34.6393 115.286 34.3415C114.946 34.0437 114.691 33.6608 114.521 33.1929C114.35 32.7249 114.265 32.1293 114.265 31.4061C114.265 30.7255 114.35 30.1299 114.521 29.662C114.691 29.194 114.946 28.8111 115.286 28.5134C115.627 28.2156 116.052 28.0029 116.52 27.8752C116.988 27.7476 117.541 27.7051 118.137 27.7051H125.071V30.0874H118.477C118.009 30.0874 117.584 30.1725 117.243 30.3852C116.903 30.5979 116.733 30.9382 116.733 31.4061C116.733 31.9592 116.903 32.2995 117.243 32.5122C117.584 32.7249 117.966 32.81 118.477 32.81H121.54C122.135 32.81 122.646 32.8526 123.156 32.9802C123.624 33.1078 124.05 33.3205 124.39 33.6183C124.73 33.9161 124.986 34.299 125.156 34.7669C125.326 35.2349 125.411 35.8304 125.411 36.5536C125.411 37.2343 125.326 37.8299 125.156 38.2978C124.986 38.7658 124.73 39.1486 124.39 39.4464C124.05 39.7442 123.667 39.9569 123.156 40.0845C122.689 40.2122 122.135 40.2547 121.54 40.2547H114.606V37.8724Z" fill="white"/>
<path d="M121.54 40.5525H114.308V37.6172H121.2C121.625 37.6172 121.965 37.5321 122.263 37.362C122.518 37.2343 122.603 36.9366 122.603 36.5537C122.603 36.1283 122.476 35.873 122.263 35.7029C121.965 35.5327 121.625 35.4476 121.2 35.4476H118.137C117.541 35.4476 116.945 35.3625 116.477 35.2349C115.967 35.1073 115.499 34.852 115.116 34.5543C114.733 34.2139 114.478 33.7885 114.265 33.278C114.053 32.7675 113.968 32.1294 113.968 31.3637C113.968 30.6405 114.053 30.0023 114.265 29.4919C114.478 28.9814 114.733 28.5559 115.116 28.2156C115.499 27.9178 115.924 27.6626 116.477 27.535C116.988 27.4073 117.541 27.3223 118.137 27.3223H125.369V30.2576H118.477C118.051 30.2576 117.711 30.3427 117.413 30.5128C117.243 30.5979 117.03 30.8106 117.03 31.3211C117.03 31.7465 117.158 32.0018 117.371 32.172C117.669 32.3421 118.009 32.4272 118.434 32.4272H121.497C122.093 32.4272 122.688 32.5123 123.156 32.6399C123.667 32.7675 124.135 33.0228 124.518 33.3206C124.901 33.6609 125.156 34.0863 125.369 34.5968C125.581 35.1073 125.666 35.7454 125.666 36.5111C125.666 37.2343 125.581 37.8725 125.369 38.383C125.156 38.8934 124.901 39.3189 124.518 39.6592C124.135 39.957 123.709 40.2122 123.199 40.3398C122.731 40.4675 122.178 40.5525 121.54 40.5525ZM114.903 39.957H121.54C122.093 39.957 122.603 39.9144 123.071 39.7868C123.497 39.6592 123.88 39.489 124.177 39.2338C124.475 38.9785 124.688 38.6382 124.858 38.2128C125.028 37.7874 125.113 37.2343 125.113 36.5537C125.113 35.873 125.028 35.32 124.858 34.852C124.688 34.4266 124.475 34.0438 124.177 33.7885C123.88 33.5333 123.497 33.3206 123.071 33.2355C122.603 33.1079 122.093 33.0653 121.54 33.0653H118.477C117.966 33.0653 117.498 32.9377 117.116 32.725C116.69 32.4697 116.477 32.0018 116.477 31.3637C116.477 30.7681 116.69 30.3427 117.116 30.0874C117.498 29.8747 117.966 29.7471 118.477 29.7471H124.773V27.9604H118.137C117.584 27.9604 117.073 28.0029 116.605 28.1305C116.18 28.2582 115.797 28.4283 115.499 28.6836C115.201 28.9388 114.989 29.2791 114.818 29.7046C114.648 30.13 114.563 30.683 114.563 31.3637C114.563 32.0443 114.648 32.5974 114.818 33.0653C114.989 33.4907 115.201 33.8736 115.499 34.1288C115.797 34.3841 116.18 34.5968 116.605 34.6819C117.073 34.8095 117.584 34.852 118.137 34.852H121.2C121.71 34.852 122.178 34.9797 122.561 35.1924C122.986 35.4476 123.199 35.9156 123.199 36.5537C123.199 37.1493 122.986 37.5747 122.561 37.8299C122.178 38.0426 121.71 38.1703 121.2 38.1703H114.903V39.957Z" fill="white"/>
<path d="M130.644 39.9141C130.006 39.7014 129.41 39.361 128.942 38.8505C128.432 38.3401 128.049 37.7019 127.794 36.8937C127.496 36.0854 127.368 35.1069 127.368 33.9158C127.368 32.7246 127.496 31.7462 127.794 30.9379C128.091 30.1296 128.474 29.4915 128.942 28.981C129.41 28.4705 130.006 28.1302 130.644 27.9175C131.282 27.7048 132.005 27.5771 132.728 27.5771H137.408V29.9595H133.069C132.686 29.9595 132.345 30.002 132.048 30.0871C131.707 30.1722 131.452 30.3423 131.197 30.555C130.942 30.7677 130.729 31.0655 130.516 31.4058C130.346 31.7462 130.218 32.1716 130.133 32.7246H137.408V35.1069H130.133C130.218 35.6174 130.346 36.0854 130.516 36.4257C130.686 36.766 130.899 37.0638 131.197 37.2765C131.452 37.4892 131.75 37.6169 132.048 37.7019C132.388 37.787 132.728 37.8296 133.069 37.8296H137.408V40.2119H132.728C132.005 40.2544 131.282 40.1268 130.644 39.9141Z" fill="white"/>
<path d="M137.706 40.5525H132.728C131.963 40.5525 131.239 40.4249 130.559 40.2122C129.878 39.9995 129.24 39.6166 128.729 39.0636C128.219 38.5531 127.794 37.8299 127.496 37.0216C127.198 36.2133 127.028 35.1498 127.028 33.9586C127.028 32.7675 127.198 31.7465 127.496 30.8957C127.794 30.0448 128.219 29.3642 128.729 28.8537C129.24 28.3432 129.878 27.9603 130.559 27.7051C131.239 27.4924 131.963 27.3647 132.728 27.3647H137.706V30.3001H133.111C132.771 30.3001 132.473 30.3426 132.175 30.4277C131.878 30.5128 131.622 30.6404 131.41 30.8106C131.197 30.9807 130.984 31.236 130.814 31.5763C130.686 31.8316 130.601 32.1294 130.516 32.4697H137.748V35.4476H130.516C130.601 35.7879 130.686 36.0857 130.814 36.3409C130.984 36.6387 131.154 36.894 131.41 37.1067C131.622 37.2768 131.878 37.4045 132.175 37.4895C132.473 37.5746 132.771 37.6172 133.111 37.6172H137.706V40.5525ZM132.728 27.9603C132.005 27.9603 131.367 28.0454 130.729 28.2581C130.133 28.4708 129.58 28.8112 129.112 29.2366C128.644 29.7045 128.304 30.3001 128.006 31.0658C127.751 31.8316 127.581 32.81 127.581 33.9161C127.581 35.0647 127.708 36.0006 128.006 36.7663C128.262 37.5321 128.644 38.1277 129.112 38.5956C129.58 39.0636 130.091 39.4039 130.729 39.5741C131.367 39.7868 132.048 39.8718 132.728 39.8718H137.11V38.0851H133.069C132.686 38.0851 132.303 38.0426 131.963 37.9575C131.622 37.8724 131.282 37.7022 130.984 37.447C130.686 37.2343 130.431 36.894 130.261 36.5111C130.048 36.1282 129.921 35.6603 129.836 35.1072L129.793 34.7669H137.11V32.9376H129.793L129.836 32.5973C129.921 32.0443 130.048 31.5763 130.261 31.1934C130.474 30.8106 130.729 30.5128 130.984 30.2576C131.282 30.0448 131.58 29.8321 131.963 29.7471C132.303 29.662 132.686 29.6194 133.069 29.6194H137.11V27.8327H132.728V27.9603Z" fill="white"/>
<path d="M142.938 39.9141C142.3 39.7014 141.704 39.361 141.236 38.8505C140.726 38.34 140.343 37.7019 140.088 36.8937C139.79 36.0854 139.662 35.1069 139.662 33.9158C139.662 32.7246 139.79 31.7462 140.088 30.9379C140.386 30.1296 140.768 29.4915 141.236 28.981C141.704 28.4705 142.3 28.1302 142.938 27.9175C143.576 27.7048 144.299 27.5771 145.023 27.5771H149.702V29.9595H145.363C144.937 29.9595 144.555 30.002 144.172 30.1296C143.789 30.2572 143.491 30.4699 143.193 30.7677C142.938 31.0655 142.683 31.4909 142.555 31.9589C142.385 32.4694 142.3 33.1075 142.3 33.8307C142.3 34.5964 142.385 35.2346 142.555 35.7025C142.725 36.213 142.938 36.5959 143.193 36.8937C143.449 37.1915 143.789 37.4042 144.172 37.5318C144.555 37.6594 144.937 37.7019 145.363 37.7019H149.702V40.0842H145.023C144.299 40.2544 143.576 40.1268 142.938 39.9141Z" fill="white"/>
<path d="M150 40.5525H145.023C144.257 40.5525 143.534 40.4249 142.853 40.2122C142.172 39.9995 141.534 39.6166 141.024 39.0636C140.513 38.5531 140.088 37.8299 139.79 37.0216C139.492 36.2133 139.322 35.1498 139.322 33.9586C139.322 32.7675 139.492 31.7465 139.79 30.8957C140.088 30.0448 140.513 29.3642 141.024 28.8537C141.534 28.3432 142.172 27.9603 142.853 27.7051C143.534 27.4924 144.257 27.3647 145.023 27.3647H150V30.3001H145.363C144.98 30.3001 144.597 30.3426 144.257 30.4703C143.916 30.5979 143.661 30.768 143.406 31.0233C143.151 31.2785 142.981 31.6614 142.81 32.1294C142.64 32.5973 142.598 33.1929 142.598 33.9161C142.598 34.6393 142.683 35.2349 142.81 35.7028C142.938 36.1708 143.151 36.5536 143.406 36.8089C143.661 37.0641 143.916 37.2768 144.257 37.3619C144.597 37.4895 144.98 37.5321 145.363 37.5321H149.957V40.5525H150ZM145.023 27.9603C144.299 27.9603 143.661 28.0454 143.023 28.2581C142.428 28.4708 141.874 28.8112 141.407 29.2366C140.939 29.7045 140.598 30.3001 140.3 31.0658C140.045 31.8316 139.875 32.81 139.875 33.9161C139.875 35.0647 140.003 36.0006 140.3 36.7663C140.556 37.5321 140.939 38.1277 141.407 38.5956C141.874 39.0636 142.385 39.4039 143.023 39.5741C143.661 39.7868 144.342 39.8718 145.023 39.8718H149.404V38.0851H145.363C144.895 38.0851 144.47 38 144.087 37.8724C143.661 37.7448 143.321 37.4895 142.981 37.1492C142.683 36.8089 142.428 36.3835 142.257 35.8304C142.087 35.3199 142.002 34.6393 142.002 33.8735C142.002 33.1078 142.087 32.4271 142.257 31.9167C142.428 31.3636 142.683 30.9382 142.981 30.5979C143.278 30.2575 143.661 30.0023 144.087 29.8747C144.47 29.7471 144.895 29.662 145.363 29.662H149.404V27.8752H145.023V27.9603Z" fill="white"/>
<defs>
<linearGradient id="paint0_linear_521_2213" x1="-0.0416478" y1="31.1243" x2="54.7715" y2="31.1243" gradientUnits="userSpaceOnUse">
<stop stop-color="#ED1C24"/>
<stop offset="1" stop-color="#DA1C5C"/>
</linearGradient>
</defs>
</svg>
