<svg width="1170" height="261" viewBox="0 0 1170 261" fill="none" xmlns="http://www.w3.org/2000/svg">
<g filter="url(#filter0_d_521_2287)">
<path d="M279.394 33.9742L270.74 46.6037H197.862L210.623 27.9999H150.045L97.594 104.568C137.943 99.6039 169.066 88.6436 178.533 74.8939L180.026 72.6975L170.582 70.1496H254.662L249.192 78.1007C229.996 106.083 150.353 126.115 58.102 126.115H9.99988L78.8803 25.5399C85.3379 16.1391 112.091 9.41797 143.06 9.41797H215.257C256.946 9.41797 288.048 21.3227 279.394 33.9742Z" fill="#D3D3D3" fill-opacity="0.2" stroke="#ED1C24" stroke-width="1.5"/>
<path d="M512.457 9L450.495 99.735C440.018 115.11 396.485 126.092 346.077 126.092H226.151L239 107.423H326.001C353.061 107.423 376.519 101.536 382.054 93.2994L385.151 88.7748H332.876C291.144 88.7748 260.02 76.8042 268.696 64.0868L304.432 11.5479L299.073 9H379.001L337.269 70.083H397.891L437.866 11.5479L432.507 9H512.457Z" fill="#D3D3D3" fill-opacity="0.2" stroke="#ED1C24" stroke-width="1.5"/>
<path d="M722.46 21.344L706.47 44.78C698.431 56.553 665.001 64.9873 626.3 64.9873H571.543L584.282 46.3176H605.939C621.468 46.3176 634.866 42.935 638.095 38.2127L645.299 27.6698H584.743L530.293 107.401H590.849L615.362 71.7523L611.716 66.1075L665.375 82.9542C673.172 85.3922 676.489 88.9066 674.16 92.2891L656.479 117.944C653.272 122.688 639.874 126.07 624.323 126.07H437.625L446.411 123.544L522.869 11.5259L517.488 9H690.326C711.236 9 726.809 14.9963 722.46 21.344Z" fill="#D3D3D3" fill-opacity="0.2" stroke="#ED1C24" stroke-width="1.5"/>
<path d="M947.287 9L934.547 27.6698L932.636 30.635L926.948 27.6698H801.377L788.638 46.3395H921.786L909.047 65.0093L907.158 67.9964L901.469 65.0093H775.876L746.927 107.423H880.207L867.446 126.092L865.557 129.058L859.868 126.092H661.332L728.521 27.6698L730.19 25.1878C736.648 15.7431 763.422 9 794.546 9H947.287Z" fill="#D3D3D3" fill-opacity="0.2" stroke="#ED1C24" stroke-width="1.5"/>
<path d="M1159.27 21.322L1143.3 44.7581C1135.22 56.553 1101.74 65.0093 1063 65.0093H996.049L992.557 70.105H1042.33C1042.59 77.4631 1045.14 86.7321 1053.31 96.7259C1067.87 114.693 1093.88 127.586 1106.29 133.011H1119.64L1110.53 134.812L1043.6 147.991C1028.38 141.402 998.861 126.51 982.255 105.995C979.579 102.731 977.225 99.2144 975.227 95.4959L974.37 96.7698L956.14 123.479L961.499 126.026H881.549L959.742 11.46L954.317 9H1127.22C1148.06 9 1163.62 14.9743 1159.27 21.322ZM1082.08 27.6698H1021.53L1008.79 46.3395H1042.72C1058.25 46.3395 1071.65 42.957 1074.88 38.2346L1082.08 27.6698Z" fill="#D3D3D3" fill-opacity="0.2" stroke="#ED1C24" stroke-width="1.5"/>
</g>
<g filter="url(#filter1_d_521_2287)">
<path d="M716.779 247.897H704.413V242.56H668.962V247.897H656.574V173.833H716.757L716.779 247.897ZM704.413 229.337V187.034H668.962V229.337H704.413Z" fill="#D3D3D3" fill-opacity="0.2" stroke="#ED1C24" stroke-width="1.3"/>
<path d="M771.08 186.56H735.937V213.884H723.571V173.359H783.754V197.52C783.754 228.6 758.121 245.161 730.358 247.379L726.471 234.201C748.435 234.201 771.256 221.022 771.256 198.223L771.08 186.56Z" fill="#D3D3D3" fill-opacity="0.2" stroke="#ED1C24" stroke-width="1.3"/>
<path d="M799.398 169.912C806.756 176.128 817.672 190.229 823.558 199.784L813.081 207.12C807.832 198.334 797.706 185.353 790.568 179.686L799.398 169.912ZM795.005 237.76C818.287 225.768 838.231 197.895 846.05 171.252L857.625 175.03C851.036 203.342 826.436 236.091 801.682 249.533L795.005 237.76Z" fill="#D3D3D3" fill-opacity="0.2" stroke="#ED1C24" stroke-width="1.3"/>
<path d="M928.968 213.215V223.78C928.968 239.66 923.279 247.941 907.465 247.941H868.237V234.762H907.245C914.582 234.762 916.602 231.204 916.602 223.78V213.215H887.851C877.813 213.215 872.476 207.351 872.476 196.676V187.012H865.008V173.833H929.517V187.012H884.776V196.676C884.776 198.872 885.435 199.905 887.895 199.905H932.79V213.215H928.968Z" fill="#D3D3D3" fill-opacity="0.2" stroke="#ED1C24" stroke-width="1.3"/>
<path d="M1003.61 212.766V223.331C1003.61 239.212 997.919 247.492 982.105 247.492H942.876V234.314H981.885C989.243 234.314 991.242 230.755 991.242 223.331V212.766H962.49C952.453 212.766 947.006 206.902 947.006 196.227V186.563H939.45V173.384H1003.96V186.563H959.372V196.227C959.372 198.424 960.03 199.456 962.49 199.456H1007.41V212.766H1003.61Z" fill="#D3D3D3" fill-opacity="0.2" stroke="#ED1C24" stroke-width="1.3"/>
<path d="M1017.19 173.359H1070.57V186.538H1038.04V199.717H1083.94V213.049H1038.04V223.372C1038.04 230.687 1040.04 234.355 1047.29 234.355H1079.92L1076.92 247.533H1047.07C1031.23 247.533 1025.54 239.319 1025.54 223.372V213.049H1014.95V199.673H1025.54V186.494H1017.19V173.359Z" fill="#D3D3D3" fill-opacity="0.2" stroke="#ED1C24" stroke-width="1.3"/>
<path d="M1100.35 169.912C1107.71 176.128 1118.63 190.229 1124.51 199.784L1114.04 207.12C1108.79 198.334 1098.66 185.353 1091.52 179.686L1100.35 169.912ZM1095.96 237.76C1119.24 225.768 1139.19 197.895 1147.01 171.252L1158.52 175.03C1151.93 203.342 1127.33 236.091 1102.57 249.533L1095.96 237.76Z" fill="#D3D3D3" fill-opacity="0.2" stroke="#ED1C24" stroke-width="1.3"/>
</g>
<defs>
<filter id="filter0_d_521_2287" x="0.577148" y="0.25" width="1168.17" height="156.522" filterUnits="userSpaceOnUse" color-interpolation-filters="sRGB">
<feFlood flood-opacity="0" result="BackgroundImageFix"/>
<feColorMatrix in="SourceAlpha" type="matrix" values="0 0 0 0 0 0 0 0 0 0 0 0 0 0 0 0 0 0 127 0" result="hardAlpha"/>
<feOffset/>
<feGaussianBlur stdDeviation="4"/>
<feColorMatrix type="matrix" values="0 0 0 0 0.929412 0 0 0 0 0.109804 0 0 0 0 0.141176 0 0 0 1 0"/>
<feBlend mode="normal" in2="BackgroundImageFix" result="effect1_dropShadow_521_2287"/>
<feBlend mode="normal" in="SourceGraphic" in2="effect1_dropShadow_521_2287" result="shape"/>
</filter>
<filter id="filter1_d_521_2287" x="645.924" y="159.01" width="523.359" height="101.4" filterUnits="userSpaceOnUse" color-interpolation-filters="sRGB">
<feFlood flood-opacity="0" result="BackgroundImageFix"/>
<feColorMatrix in="SourceAlpha" type="matrix" values="0 0 0 0 0 0 0 0 0 0 0 0 0 0 0 0 0 0 127 0" result="hardAlpha"/>
<feOffset/>
<feGaussianBlur stdDeviation="5"/>
<feColorMatrix type="matrix" values="0 0 0 0 0.929412 0 0 0 0 0.109804 0 0 0 0 0.141176 0 0 0 1 0"/>
<feBlend mode="normal" in2="BackgroundImageFix" result="effect1_dropShadow_521_2287"/>
<feBlend mode="normal" in="SourceGraphic" in2="effect1_dropShadow_521_2287" result="shape"/>
</filter>
</defs>
</svg>
